<mxfile host="app.diagrams.net" modified="2022-07-16T04:47:35.683Z" agent="5.0 (Windows NT 10.0; Win64; x64) AppleWebKit/537.36 (KHTML, like Gecko) Chrome/103.0.0.0 Safari/537.36" etag="iey-At8jkax4saWDmSF7" version="20.0.4" type="github">
  <diagram id="yFmc9YSQTJfabJptHS63" name="Page-1">
    <mxGraphModel dx="1988" dy="1710" grid="1" gridSize="10" guides="1" tooltips="1" connect="1" arrows="1" fold="1" page="1" pageScale="1" pageWidth="850" pageHeight="1100" math="0" shadow="0">
      <root>
        <mxCell id="0" />
        <mxCell id="1" parent="0" />
        <mxCell id="uk5Q9cAsLB0Mlx0EKisg-2" value="" style="shape=cube;whiteSpace=wrap;html=1;boundedLbl=1;backgroundOutline=1;darkOpacity=0.05;darkOpacity2=0.1;size=10;" vertex="1" parent="1">
          <mxGeometry x="-20" y="270" width="200" height="90" as="geometry" />
        </mxCell>
        <mxCell id="uk5Q9cAsLB0Mlx0EKisg-3" value="Data" style="text;html=1;strokeColor=none;fillColor=none;align=center;verticalAlign=middle;whiteSpace=wrap;rounded=0;" vertex="1" parent="1">
          <mxGeometry x="-20" y="240" width="60" height="30" as="geometry" />
        </mxCell>
        <mxCell id="uk5Q9cAsLB0Mlx0EKisg-4" value="Json Data Object" style="text;html=1;strokeColor=none;fillColor=none;align=center;verticalAlign=middle;whiteSpace=wrap;rounded=0;" vertex="1" parent="1">
          <mxGeometry x="30" y="300" width="100" height="40" as="geometry" />
        </mxCell>
        <mxCell id="uk5Q9cAsLB0Mlx0EKisg-5" value="" style="shape=cube;whiteSpace=wrap;html=1;boundedLbl=1;backgroundOutline=1;darkOpacity=0.05;darkOpacity2=0.1;size=10;" vertex="1" parent="1">
          <mxGeometry x="410" y="230" width="240" height="170" as="geometry" />
        </mxCell>
        <mxCell id="uk5Q9cAsLB0Mlx0EKisg-6" value="DataTable" style="text;html=1;strokeColor=none;fillColor=none;align=center;verticalAlign=middle;whiteSpace=wrap;rounded=0;" vertex="1" parent="1">
          <mxGeometry x="410" y="200" width="60" height="30" as="geometry" />
        </mxCell>
        <mxCell id="uk5Q9cAsLB0Mlx0EKisg-7" value="&lt;div style=&quot;&quot;&gt;&lt;span data-darkreader-inline-color=&quot;&quot; data-darkreader-inline-bgcolor=&quot;&quot; style=&quot;background-color: initial; color: rgb(240, 240, 240); --darkreader-inline-bgcolor: initial; --darkreader-inline-color:#dfdcd7;&quot;&gt;=&amp;gt; All projects&lt;/span&gt;&lt;/div&gt;&lt;div style=&quot;&quot;&gt;&lt;span data-darkreader-inline-color=&quot;&quot; data-darkreader-inline-bgcolor=&quot;&quot; style=&quot;background-color: initial; color: rgb(240, 240, 240); --darkreader-inline-bgcolor: initial; --darkreader-inline-color:#dfdcd7;&quot;&gt;=&amp;gt; CurrentPage&lt;/span&gt;&lt;/div&gt;&lt;div style=&quot;&quot;&gt;&lt;span data-darkreader-inline-color=&quot;&quot; data-darkreader-inline-bgcolor=&quot;&quot; style=&quot;background-color: initial; color: rgb(240, 240, 240); --darkreader-inline-bgcolor: initial; --darkreader-inline-color:#dfdcd7;&quot;&gt;=&amp;gt; PageSize&lt;/span&gt;&lt;/div&gt;&lt;div style=&quot;&quot;&gt;() =&amp;gt; pageChange&lt;/div&gt;&lt;div style=&quot;&quot;&gt;&lt;br&gt;&lt;/div&gt;&lt;div style=&quot;&quot;&gt;= paginatedData =&amp;gt; paginate&lt;/div&gt;&lt;div style=&quot;&quot;&gt;&lt;br&gt;&lt;/div&gt;&lt;div style=&quot;&quot;&gt;&amp;lt;pagination /&amp;gt;&lt;/div&gt;&lt;div style=&quot;&quot;&gt;&lt;br&gt;&lt;/div&gt;&lt;div style=&quot;&quot;&gt;map =&amp;gt; paginatedData&lt;/div&gt;" style="text;html=1;strokeColor=none;fillColor=none;align=left;verticalAlign=middle;whiteSpace=wrap;rounded=0;" vertex="1" parent="1">
          <mxGeometry x="470" y="250" width="170" height="140" as="geometry" />
        </mxCell>
        <mxCell id="uk5Q9cAsLB0Mlx0EKisg-8" value="" style="shape=cube;whiteSpace=wrap;html=1;boundedLbl=1;backgroundOutline=1;darkOpacity=0.05;darkOpacity2=0.1;size=10;" vertex="1" parent="1">
          <mxGeometry x="410" y="480" width="290" height="120" as="geometry" />
        </mxCell>
        <mxCell id="uk5Q9cAsLB0Mlx0EKisg-9" value="Pagination" style="text;html=1;strokeColor=none;fillColor=none;align=center;verticalAlign=middle;whiteSpace=wrap;rounded=0;" vertex="1" parent="1">
          <mxGeometry x="410" y="450" width="60" height="30" as="geometry" />
        </mxCell>
        <mxCell id="uk5Q9cAsLB0Mlx0EKisg-10" value="&lt;div style=&quot;&quot;&gt;= pagesCount =&amp;gt; projects.length / pageSize&lt;/div&gt;&lt;div style=&quot;&quot;&gt;= pages =&amp;gt; range(1 , pagesCount + 1)&lt;/div&gt;&lt;div style=&quot;&quot;&gt;&lt;br&gt;&lt;/div&gt;&lt;div style=&quot;&quot;&gt;map =&amp;gt; pages number { 1,2,3,4,...... }&lt;/div&gt;" style="text;html=1;strokeColor=none;fillColor=none;align=left;verticalAlign=middle;whiteSpace=wrap;rounded=0;" vertex="1" parent="1">
          <mxGeometry x="440" y="490" width="275" height="110" as="geometry" />
        </mxCell>
        <mxCell id="uk5Q9cAsLB0Mlx0EKisg-11" value="" style="shape=cube;whiteSpace=wrap;html=1;boundedLbl=1;backgroundOutline=1;darkOpacity=0.05;darkOpacity2=0.1;size=10;" vertex="1" parent="1">
          <mxGeometry x="410" y="-30" width="340" height="170" as="geometry" />
        </mxCell>
        <mxCell id="uk5Q9cAsLB0Mlx0EKisg-12" value="paginate function" style="text;html=1;strokeColor=none;fillColor=none;align=center;verticalAlign=middle;whiteSpace=wrap;rounded=0;" vertex="1" parent="1">
          <mxGeometry x="410" y="-60" width="120" height="30" as="geometry" />
        </mxCell>
        <mxCell id="uk5Q9cAsLB0Mlx0EKisg-13" value="&lt;div style=&quot;&quot;&gt;= start =&amp;gt; currentPage -1 * pageSize&lt;/div&gt;&lt;div style=&quot;&quot;&gt;return _(allprojects).slice(start).take(pagesize).value()&lt;/div&gt;" style="text;html=1;strokeColor=none;fillColor=none;align=left;verticalAlign=middle;whiteSpace=wrap;rounded=0;" vertex="1" parent="1">
          <mxGeometry x="440" y="-10" width="290" height="130" as="geometry" />
        </mxCell>
        <mxCell id="uk5Q9cAsLB0Mlx0EKisg-14" value="" style="endArrow=classic;html=1;rounded=0;entryX=0.008;entryY=0.015;entryDx=0;entryDy=0;entryPerimeter=0;" edge="1" parent="1" target="uk5Q9cAsLB0Mlx0EKisg-7">
          <mxGeometry width="50" height="50" relative="1" as="geometry">
            <mxPoint x="180" y="330" as="sourcePoint" />
            <mxPoint x="230" y="280" as="targetPoint" />
          </mxGeometry>
        </mxCell>
        <mxCell id="uk5Q9cAsLB0Mlx0EKisg-15" value="" style="edgeStyle=segmentEdgeStyle;endArrow=classic;html=1;rounded=0;entryX=-0.006;entryY=0.663;entryDx=0;entryDy=0;entryPerimeter=0;exitX=0;exitY=0.75;exitDx=0;exitDy=0;" edge="1" parent="1" source="uk5Q9cAsLB0Mlx0EKisg-7" target="uk5Q9cAsLB0Mlx0EKisg-8">
          <mxGeometry width="50" height="50" relative="1" as="geometry">
            <mxPoint x="300" y="490" as="sourcePoint" />
            <mxPoint x="350" y="440" as="targetPoint" />
            <Array as="points">
              <mxPoint x="470" y="350" />
              <mxPoint x="380" y="350" />
              <mxPoint x="380" y="560" />
            </Array>
          </mxGeometry>
        </mxCell>
        <mxCell id="uk5Q9cAsLB0Mlx0EKisg-16" value="allprojects length&lt;br&gt;pageSize&lt;br&gt;currentPage&lt;br&gt;() =&amp;gt; pageChange&lt;br&gt;" style="text;html=1;strokeColor=none;fillColor=none;align=center;verticalAlign=middle;whiteSpace=wrap;rounded=0;" vertex="1" parent="1">
          <mxGeometry x="240" y="420" width="140" height="90" as="geometry" />
        </mxCell>
        <mxCell id="uk5Q9cAsLB0Mlx0EKisg-18" value="" style="edgeStyle=elbowEdgeStyle;elbow=horizontal;endArrow=classic;html=1;rounded=0;" edge="1" parent="1" source="uk5Q9cAsLB0Mlx0EKisg-7">
          <mxGeometry width="50" height="50" relative="1" as="geometry">
            <mxPoint x="360" y="100" as="sourcePoint" />
            <mxPoint x="410" y="50" as="targetPoint" />
            <Array as="points">
              <mxPoint x="270" y="190" />
            </Array>
          </mxGeometry>
        </mxCell>
        <mxCell id="uk5Q9cAsLB0Mlx0EKisg-19" value="allprojects&lt;br&gt;currentPage&lt;br&gt;pageSize" style="text;html=1;strokeColor=none;fillColor=none;align=center;verticalAlign=middle;whiteSpace=wrap;rounded=0;" vertex="1" parent="1">
          <mxGeometry x="130" y="50" width="140" height="90" as="geometry" />
        </mxCell>
      </root>
    </mxGraphModel>
  </diagram>
</mxfile>
